 <svg version="1.0" xmlns="http://www.w3.org/2000/svg" width="700.000000pt" height="700.000000pt" viewBox="0 0 700.000000 700.000000" preserveAspectRatio="xMidYMid meet">
<metadata>
Advanced Foam contact logo 2020
</metadata>
<g transform="translate(0.000000,700.000000) scale(0.100000,-0.100000)" fill="#000000" stroke="none">
<path d="M4480 6774 c-654 -59 -1243 -362 -1575 -811 -80 -108 -173 -287 -215
-413 -32 -98 -70 -315 -70 -407 0 -68 27 -263 46 -333 45 -165 139 -359 241
-496 130 -174 325 -349 533 -477 66 -40 255 -134 303 -150 22 -8 22 -22 -8
-152 -14 -61 -34 -148 -44 -195 -50 -226 -61 -278 -71 -315 -14 -58 -12 -107
6 -133 23 -33 71 -55 108 -48 20 4 188 124 462 329 l432 324 168 6 c605 22
1142 238 1522 610 238 234 370 465 439 772 25 114 25 396 0 515 -133 617 -677
1115 -1425 1305 -200 50 -332 66 -577 70 -126 1 -250 1 -275 -1z m620 -243
c447 -79 805 -256 1080 -531 183 -183 292 -368 353 -600 19 -73 22 -111 22
-265 0 -174 -2 -184 -33 -290 -63 -213 -171 -393 -331 -555 -201 -203 -438
-347 -736 -448 -243 -82 -421 -113 -693 -119 l-203 -5 -327 -245 c-260 -195
-328 -241 -330 -226 -2 10 11 79 28 153 61 264 75 355 61 389 -14 33 -55 61
-117 81 -61 19 -252 112 -329 160 -314 193 -543 465 -644 765 -40 118 -53 205
-53 345 0 242 62 441 203 655 83 126 279 315 426 412 247 163 523 272 808 319
177 30 213 32 450 30 195 -3 263 -7 365 -25z"></path>
<path d="M3500 5580 l0 -110 1205 0 1206 0 -3 108 -3 107 -1202 3 -1203 2 0
-110z"></path>
<path d="M3500 5140 l0 -110 1203 2 1202 3 3 108 3 107 -1206 0 -1205 0 0
-110z"></path>
<path d="M3500 4700 l0 -110 1203 2 1202 3 3 108 3 107 -1206 0 -1205 0 0
-110z"></path>
<path d="M1655 4576 c-208 -40 -391 -135 -545 -283 -261 -248 -356 -513 -348
-968 3 -167 5 -186 24 -212 11 -15 34 -35 51 -43 l30 -15 6 -115 c11 -196 51
-334 144 -494 60 -104 217 -263 323 -327 l75 -45 3 -59 c2 -32 -1 -62 -5 -66
-5 -5 -83 -29 -173 -54 -91 -25 -223 -61 -295 -81 -303 -83 -367 -115 -500
-248 -98 -98 -151 -185 -196 -321 -23 -68 -23 -81 -27 -513 l-3 -443 34 -34
35 -35 1572 0 1572 0 35 35 34 34 -3 443 c-4 432 -4 445 -27 513 -48 143 -119
254 -230 357 -123 114 -202 144 -763 294 l-178 47 0 64 0 63 46 28 c199 118
360 307 434 511 43 117 60 213 60 337 l0 104 39 20 c71 36 71 36 71 305 0 320
-17 414 -105 600 -135 283 -400 501 -710 585 -102 28 -371 37 -480 16z m480
-245 c224 -79 403 -234 505 -438 72 -147 83 -195 88 -411 l4 -193 -38 7 c-102
18 -226 92 -301 178 -19 23 -52 75 -73 116 -56 111 -98 142 -163 121 -19 -7
-74 -53 -137 -117 -129 -130 -197 -184 -298 -235 -126 -64 -222 -79 -500 -79
l-234 0 4 203 c4 192 6 206 34 287 48 140 106 232 219 345 108 109 193 164
323 211 106 38 150 43 322 40 144 -3 161 -6 245 -35z m75 -972 c83 -115 252
-230 384 -263 l28 -7 -4 -152 c-4 -132 -8 -162 -31 -226 -89 -247 -268 -417
-523 -497 -93 -29 -324 -27 -424 4 -242 75 -425 255 -508 499 -24 69 -49 274
-39 315 l7 26 212 4 c271 7 361 27 538 119 77 40 207 138 269 203 19 20 38 36
41 36 3 0 26 -28 50 -61z m-350 -1384 c47 0 115 4 153 8 l67 8 0 -78 c0 -50 6
-88 15 -107 8 -15 15 -30 15 -32 0 -7 -242 -204 -250 -204 -11 0 -250 198
-250 208 1 4 7 18 15 32 9 16 14 54 15 102 l0 77 68 -7 c37 -4 105 -7 152 -7z
m-302 -442 l191 -158 0 -143 1 -143 108 3 107 3 5 141 5 141 130 109 c259 218
243 207 296 200 26 -4 61 -11 78 -17 l31 -11 0 -97 0 -96 -324 -324 -324 -324
-39 31 c-21 17 -170 163 -330 324 l-293 294 0 91 c0 102 2 106 70 121 91 20
85 23 288 -145z m-561 -158 c6 -11 192 -200 412 -420 l401 -400 50 0 50 0 404
404 c320 320 406 411 415 441 6 20 11 74 11 118 l0 80 28 -8 c15 -5 67 -21
116 -36 181 -55 306 -176 374 -361 15 -42 17 -90 17 -398 l0 -350 -1418 -3
-1418 -2 3 362 c4 350 5 365 27 417 72 174 235 314 406 349 28 6 61 15 75 20
l25 9 5 -101 c3 -55 10 -110 17 -121z"></path>
<path d="M1425 2793 c24 -177 152 -324 320 -368 154 -39 312 2 422 112 72 72
107 145 127 266 l7 37 -111 0 c-104 0 -110 -1 -110 -20 0 -28 -43 -110 -72
-137 -82 -77 -231 -70 -310 14 -28 30 -58 94 -58 124 0 17 -9 19 -111 19
l-110 0 6 -47z"></path>
</g>
</svg>