 <svg version="1.0" xmlns="http://www.w3.org/2000/svg" width="700.000000pt" height="174.000000pt" viewBox="0 0 700.000000 174.000000" preserveAspectRatio="xMidYMid meet">
<metadata>
Advanced Foam logo 2020
</metadata>
<g transform="translate(0.000000,174.000000) scale(0.100000,-0.100000)" fill="#000000" stroke="none">
<path d="M532 1569 c-9 -17 -31 -54 -49 -82 l-32 -52 19 -30 c11 -16 27 -46
36 -65 30 -66 38 -70 140 -70 l93 0 30 53 c64 112 62 106 39 151 -11 23 -34
60 -50 84 l-29 42 -90 0 -90 0 -17 -31z"></path>
<path d="M216 1378 c-14 -24 -34 -60 -46 -82 l-22 -38 36 -58 c20 -32 36 -62
36 -67 0 -6 8 -18 19 -27 15 -14 35 -16 106 -14 l87 3 40 65 c56 94 56 98 7
184 l-44 75 -97 1 -97 0 -25 -42z"></path>
<path d="M824 1373 c-15 -27 -35 -63 -46 -81 l-18 -33 37 -67 c57 -104 53
-102 154 -102 l89 0 45 77 c25 43 45 83 45 89 0 14 -58 124 -78 147 -12 14
-32 17 -108 17 l-93 0 -27 -47z"></path>
<path d="M1868 1263 c-9 -27 -24 -90 -34 -140 -17 -90 -25 -106 -40 -82 -11
19 -87 49 -124 49 -78 0 -161 -64 -201 -155 -26 -59 -37 -199 -20 -260 16 -62
59 -97 124 -103 58 -5 97 10 131 47 26 29 33 26 28 -9 -4 -30 -4 -30 46 -30
l51 0 6 38 c4 20 10 46 15 57 5 11 21 79 35 150 14 72 32 153 40 180 14 47 65
281 65 298 0 4 -24 7 -53 7 l-53 0 -16 -47z m-133 -296 c58 -49 39 -190 -34
-261 -30 -29 -49 -39 -72 -39 -36 0 -50 14 -69 72 -12 36 -11 48 10 113 38
121 105 168 165 115z"></path>
<path d="M4510 1268 c-6 -24 -17 -65 -25 -93 -8 -27 -18 -69 -21 -93 -4 -23
-10 -44 -14 -47 -4 -2 -22 7 -40 20 -41 30 -80 39 -138 30 -40 -6 -55 -15
-103 -65 -44 -45 -60 -71 -70 -110 -7 -27 -16 -50 -20 -50 -4 0 -9 29 -11 65
-4 69 -21 101 -72 139 -44 33 -156 30 -217 -6 -98 -57 -141 -136 -147 -265 -4
-85 -2 -96 22 -137 39 -67 94 -90 201 -84 102 5 131 21 137 75 3 21 4 40 2 42
-1 2 -23 -5 -48 -14 -102 -39 -206 -1 -209 76 l-2 34 163 3 c152 2 162 4 162
22 0 10 5 22 10 25 6 4 10 -22 10 -70 0 -127 40 -185 133 -193 55 -4 100 11
126 42 19 23 31 20 31 -9 0 -23 3 -25 49 -25 57 0 48 -19 96 200 19 85 50 225
70 310 20 85 39 170 42 188 l5 32 -56 0 -55 0 -11 -42z m-582 -288 c24 -23 37
-62 28 -85 -4 -12 -25 -15 -101 -15 -104 0 -109 4 -76 54 41 62 109 83 149 46z
m447 -14 c31 -31 40 -81 26 -148 -18 -86 -55 -134 -119 -153 -17 -5 -30 1 -53
25 -31 30 -31 33 -27 103 6 86 34 149 81 177 42 26 63 25 92 -4z"></path>
<path d="M542 1238 c-5 -7 -21 -35 -36 -63 -14 -27 -32 -58 -38 -67 -10 -15
-6 -30 26 -90 22 -40 43 -79 49 -85 6 -9 40 -13 101 -13 l92 0 47 78 c26 42
47 82 47 87 0 5 -21 45 -47 87 l-47 78 -92 0 c-61 0 -95 -4 -102 -12z"></path>
<path d="M1129 1187 c-20 -34 -58 -99 -85 -145 -27 -45 -65 -110 -84 -145 -20
-34 -44 -77 -55 -95 -74 -124 -125 -214 -125 -217 0 -3 30 -5 68 -5 l67 0 38
75 39 75 134 0 134 0 0 -29 c0 -15 3 -49 6 -75 l7 -46 58 0 c58 0 59 1 59 28
-1 27 -36 300 -64 502 -9 58 -15 113 -16 123 0 15 -10 17 -72 17 l-73 0 -36
-63z m94 -104 c4 -27 9 -92 13 -145 l7 -98 -92 0 c-50 0 -91 2 -91 5 0 11 145
285 151 285 4 0 9 -21 12 -47z"></path>
<path d="M4883 1153 c-69 -321 -103 -472 -112 -503 -21 -66 -18 -70 49 -70 33
0 60 1 60 3 0 3 37 167 53 237 l13 55 106 3 105 3 7 37 c12 76 17 72 -94 72
l-101 0 7 38 c4 20 10 42 14 47 5 6 10 24 12 40 l3 30 110 5 c106 5 109 6 116
30 4 14 7 35 8 48 1 22 1 22 -167 22 l-169 0 -20 -97z"></path>
<path d="M2511 1080 c-24 -5 -49 -14 -56 -20 -13 -11 -28 -78 -19 -91 3 -5 28
0 57 11 62 24 98 25 137 5 26 -14 30 -21 30 -59 l0 -44 -94 -4 c-159 -7 -226
-59 -226 -177 0 -49 3 -57 39 -92 35 -35 44 -39 90 -39 58 0 82 10 124 48 l27
26 0 -32 c0 -31 1 -32 44 -32 l43 0 12 53 c60 263 67 350 34 395 -11 15 -33
34 -49 41 -35 18 -133 23 -193 11z m129 -287 c0 -10 -9 -37 -19 -60 -33 -72
-124 -99 -158 -47 -16 25 -16 28 3 63 21 41 63 60 132 60 34 1 42 -2 42 -16z"></path>
<path d="M3054 1076 c-18 -8 -35 -19 -38 -25 -11 -18 -26 -13 -26 9 0 19 -5
21 -57 18 l-56 -3 -23 -116 c-12 -64 -31 -150 -42 -190 -11 -41 -23 -92 -27
-114 -3 -22 -8 -48 -11 -57 -5 -16 2 -18 54 -18 54 0 60 2 65 23 3 12 15 72
27 132 12 61 26 115 30 120 4 6 13 27 19 47 14 41 62 88 91 88 31 0 69 -22 76
-43 8 -25 -1 -87 -32 -217 -13 -58 -27 -115 -29 -127 -5 -22 -2 -23 54 -23 68
0 61 -10 86 120 9 47 23 104 31 128 8 23 14 71 14 105 0 50 -5 70 -25 99 -37
54 -115 73 -181 44z"></path>
<path d="M3460 1071 c-118 -42 -189 -168 -178 -321 10 -131 76 -187 213 -178
36 2 69 8 74 13 5 6 11 30 15 53 l7 44 -33 -8 c-90 -22 -142 6 -154 82 -13 92
35 195 106 224 26 11 44 11 114 -2 14 -2 21 7 32 42 7 25 10 48 5 53 -4 4 -39
10 -77 13 -52 3 -82 0 -124 -15z"></path>
<path d="M5374 1080 c-79 -18 -165 -103 -190 -186 -16 -55 -18 -153 -4 -204
11 -41 61 -94 103 -109 41 -16 126 -13 179 5 65 22 141 104 162 174 32 109 14
234 -42 283 -45 40 -132 56 -208 37z m109 -110 c51 -41 57 -119 15 -205 -27
-55 -55 -82 -94 -95 -71 -24 -123 43 -110 142 18 135 115 216 189 158z"></path>
<path d="M5803 1078 c-47 -10 -57 -23 -66 -81 -5 -34 -4 -38 11 -32 90 39 136
44 182 20 33 -17 49 -59 33 -84 -8 -12 -33 -17 -104 -22 -109 -6 -168 -31
-199 -81 -41 -68 -34 -152 16 -199 22 -21 36 -24 94 -24 64 0 71 2 102 33 42
40 51 40 43 2 -7 -30 -6 -30 38 -30 24 0 49 6 54 13 17 21 66 325 60 373 -11
102 -115 146 -264 112z m137 -275 c-1 -65 -68 -143 -122 -143 -93 0 -87 111 8
140 37 11 114 12 114 3z"></path>
<path d="M6355 1077 c-17 -8 -36 -21 -44 -30 -19 -24 -31 -21 -31 8 0 23 -3
25 -48 25 -45 0 -49 -2 -60 -33 -7 -18 -26 -105 -43 -192 -17 -87 -34 -166
-38 -174 -5 -9 -11 -35 -15 -58 l-6 -43 58 0 59 0 21 93 c53 234 72 285 117
305 37 17 59 15 80 -8 17 -19 17 -27 6 -101 -7 -45 -16 -89 -21 -98 -9 -17
-40 -154 -40 -177 0 -10 15 -14 58 -14 l58 0 23 113 c42 211 85 297 147 297
28 0 64 -32 64 -57 0 -10 -5 -36 -11 -58 -19 -72 -59 -260 -59 -278 0 -16 8
-18 57 -15 l56 3 35 150 c44 194 48 237 28 278 -21 45 -44 64 -87 72 -50 9
-109 -9 -146 -45 l-32 -31 -33 36 c-27 30 -43 38 -78 41 -26 3 -58 -2 -75 -9z"></path>
<path d="M240 1065 c-13 -16 -34 -51 -70 -118 l-21 -38 47 -80 47 -79 96 0 97
0 42 75 c23 41 42 81 42 88 -1 6 -20 46 -43 87 l-43 75 -90 3 c-72 2 -94 0
-104 -13z"></path>
<path d="M1960 1068 c0 -46 43 -411 53 -445 l11 -43 62 0 62 0 33 58 c17 31
52 93 77 137 25 44 57 103 72 130 15 28 41 74 59 103 17 29 31 57 31 62 0 6
-25 10 -55 10 -65 0 -58 9 -167 -205 -39 -77 -72 -142 -74 -144 -12 -13 -19
25 -30 166 -7 86 -15 162 -18 170 -7 18 -116 18 -116 1z"></path>
<path d="M497 819 l-47 -82 33 -56 c17 -31 37 -65 42 -76 9 -18 22 -20 110
-23 l100 -3 33 54 c62 102 62 106 11 189 l-44 73 -96 3 -96 3 -46 -82z"></path>
</g>
</svg>